<svg xmlns:ev="http://www.w3.org/2001/xml-events" xmlns:xlink="http://www.w3.org/1999/xlink" xmlns="http://www.w3.org/2000/svg" width="4730" height="1045" viewBox="0 0 4730 1045"><style type="text/css"><![CDATA[
.st2 {fill:#7030a0;font-family:宋体;font-size:10pt}
.st1 {fill:#ffffff;font-family:宋体;font-size:10pt}
.st3 {font-family:Arial;font-size:14pt}
]]></style><defs/><g transform="translate(5,5)" id="page1"><rect x="0" y="0" width="4720" stroke="#808080" height="1035" fill="#ffffff"/><g transform="translate(3777.58,39.7)" id="shape1"><path fill-rule="evenodd" stroke="#2e8d5d" fill="#2e8d5d" d="M120,29L120,0L0,0L0,29L120,29z"/><text class="st1"><tspan x="18" y="19">TYPE_MACHINE</tspan></text></g><g transform="translate(3751.08,105.7)" id="shape2"><path fill-rule="evenodd" stroke="#2e8d5d" fill="#2e8d5d" d="M173,29L173,0L0,0L0,29L173,29z"/><text class="st1"><tspan x="13" y="19">TYPE_VEXPRESS_MACHINE</tspan></text></g><g transform="translate(3634.08,172.2)" id="shape3"><path fill-rule="evenodd" stroke="#2e8d5d" fill="#2e8d5d" d="M200.5,29L200.5,0L0,0L0,29L200.5,29z"/><text class="st1"><tspan x="16.3" y="19">TYPE_VEXPRESS_A9_MACHINE</tspan></text></g><g transform="translate(3872.58,172.2)" id="shape4"><path fill-rule="evenodd" stroke="#2e8d5d" fill="#2e8d5d" d="M200.5,29L200.5,0L0,0L0,29L200.5,29z"/><text class="st1"><tspan x="13.3" y="19">TYPE_VEXPRESS_A15_MACHINE</tspan></text></g><g transform="translate(3505.52,638.2)" id="shape5"><path fill-rule="evenodd" stroke="#6f6f6f" fill="#6f6f6f" d="M120,29L120,0L0,0L0,29L120,29z"/><text class="st1"><tspan x="22" y="19">TYPE_DEVICE</tspan></text></g><g transform="translate(3056.06,723.7)" id="shape6"><path fill-rule="evenodd" stroke="#6f6f6f" fill="#6f6f6f" d="M173,29L173,0L0,0L0,29L173,29z"/><text class="st1"><tspan x="20" y="19">TYPE_SYS_BUS_DEVICE</tspan></text></g><g transform="translate(3372.08,798.7)" id="shape7"><path fill-rule="evenodd" stroke="#6f6f6f" fill="#6f6f6f" d="M200.5,29L200.5,0L0,0L0,29L200.5,29z"/><text class="st1"><tspan x="37.3" y="19">TYPE_A9MPCORE_PRIV</tspan></text></g><g transform="translate(3590.33,798.7)" id="shape8"><path fill-rule="evenodd" stroke="#6f6f6f" fill="#6f6f6f" d="M200.5,29L200.5,0L0,0L0,29L200.5,29z"/><text class="st1"><tspan x="34.3" y="19">TYPE_A15MPCORE_PRIV</tspan></text></g><g transform="translate(4275.02,722.7)" id="shape9"><path fill-rule="evenodd" stroke="#6f6f6f" fill="#6f6f6f" d="M120,29L120,0L0,0L0,29L120,29z"/><text class="st1"><tspan x="8" y="19">TYPE_PCI_DEVICE</tspan></text></g><path transform="translate(3565.52,667.2)" stroke="#6f6f6f" id="shape10" fill="none" d="M0,0L0,24.5L-423,24.5L-423,56.5"/><path transform="translate(3142.56,752.7)" stroke="#6f6f6f" id="shape11" fill="none" d="M0,0L0,14L329.8,14L329.8,46"/><path transform="translate(3142.56,752.7)" stroke="#6f6f6f" id="shape12" fill="none" d="M0,0L0,14L548,14L548,46"/><path transform="translate(3565.52,667.2)" stroke="#6f6f6f" id="shape13" fill="none" d="M0,0L0,23.5L769.5,23.5L769.5,55.5"/><g transform="translate(4146.54,807.7)" id="shape14"><path fill-rule="evenodd" stroke="#6f6f6f" fill="#6f6f6f" d="M120,29L120,0L0,0L0,29L120,29z"/><text class="st1"><tspan x="15" y="19">TYPE_PIIX4_PM</tspan></text></g><g transform="translate(4290.54,807.7)" id="shape15"><path fill-rule="evenodd" stroke="#6f6f6f" fill="#6f6f6f" d="M120,29L120,0L0,0L0,29L120,29z"/><text class="st1"><tspan x="8" y="19">TYPE_E1000_BASE</tspan></text></g><g transform="translate(4428.54,807.7)" id="shape16"><path fill-rule="evenodd" stroke="#6f6f6f" fill="#6f6f6f" d="M120,29L120,0L0,0L0,29L120,29z"/><text class="st1"><tspan x="15" y="19">TYPE_VFIO_PCI</tspan></text></g><g transform="translate(4562.54,807.7)" id="shape17"><path fill-rule="evenodd" stroke="#6f6f6f" fill="#6f6f6f" d="M120,29L120,0L0,0L0,29L120,29z"/><text class="st1"><tspan x="8" y="19">TYPE_VIRTIO_PCI</tspan></text></g><g transform="translate(3989.54,806.2)" id="shape18"><path fill-rule="evenodd" stroke="#6f6f6f" fill="#6f6f6f" d="M142,29L142,0L0,0L0,29L142,29z"/><text class="st1"><tspan x="5" y="19">TYPE_MCH_PCI_DEVICE</tspan></text></g><path transform="translate(4335.02,751.7)" stroke="#6f6f6f" id="shape19" fill="none" d="M0,0L0,22.5L-274.5,22.5L-274.5,54.5"/><path transform="translate(4335.02,751.7)" stroke="#6f6f6f" id="shape20" fill="none" d="M0,0L0,24L-128.5,24L-128.5,56"/><path transform="translate(4335.02,751.7)" stroke="#6f6f6f" id="shape21" fill="none" d="M0,0L0,24L15.5,24L15.5,56"/><path transform="translate(4335.02,751.7)" stroke="#6f6f6f" id="shape22" fill="none" d="M0,0L0,24L153.5,24L153.5,56"/><path transform="translate(4335.02,751.7)" stroke="#6f6f6f" id="shape23" fill="none" d="M0,0L0,24L287.5,24L287.5,56"/><g transform="translate(4127.33,172.2)" id="shape24"><path fill-rule="evenodd" stroke="#2e8d5d" fill="#2e8d5d" d="M200.5,29L200.5,0L0,0L0,29L200.5,29z"/><text class="st1"><tspan x="34.3" y="19">realview-eb-machine</tspan></text></g><g transform="translate(3605.08,96.7)" id="shape25"><text class="st2"><tspan x="8.3" y="20.5">mmio总线，使用静态</tspan><tspan x="15.3" y="35.5">数组定义内存布局</tspan></text></g><g transform="translate(3853.58,213.2)" id="shape26"><text class="st2"><tspan x="4 11 18 25 32 39 46 53 60 67 74 81 88 95 102 109 116 123 130 137 144 151 158 165 172 179 186 193 200 207 214 221 228 " y="16">* Ram max 30G, addr = 0x80000000~</tspan><tspan x="4 11 18 25 32 39 46 53 60 67 74 81 88 95 102 109 116 123 130 137 144 151 158 165 172 179 186 193 200 207 214 221 228 235 242 249 256 263 270 " y="31">* cpus-init: type = TYPE_A15MPCORE_PRIV</tspan><tspan x="4 11 18 25 32 39 46 53 60 67 74 81 88 95 102 109 116 123 130 137 144 151 158 165 172 179 186 193 200 " y="46">* sram: (0x2e000000, 0x10000)</tspan><tspan x="4 11 18 25 32 39 46 53 60 67 74 81 88 95 102 109 116 123 130 137 144 151 158 165 172 179 186 193 200 207 214 221 228 235 242 249 256 263 270 277 284 291 298 305 " y="61">* mother_board_map = motherboard_aseries_map</tspan></text></g><g transform="translate(3518.58,213.2)" id="shape27"><text class="st2"><tspan x="4 11 18 25 32 39 46 53 60 67 74 81 88 95 102 109 116 123 130 137 144 151 158 165 172 179 186 193 200 207 214 221 " y="16">* Ram max 1G, addr = 0x60000000~</tspan><tspan x="4 11 18 25 32 39 46 53 60 67 74 81 88 95 102 109 116 123 130 137 144 151 158 165 172 179 186 " y="31">* lowram: 0~(max) 0x4000000</tspan><tspan x="4 11 18 25 32 39 46 53 60 67 74 81 88 95 102 109 116 123 130 137 144 151 158 165 172 179 186 193 200 207 214 221 228 235 242 249 256 263 " y="46">* cpus-init: type = TYPE_A9MPCORE_PRIV</tspan><tspan x="4 11 18 25 32 39 46 53 60 67 74 81 88 95 102 109 116 123 130 137 144 151 158 165 172 179 186 193 200 207 214 221 228 235 242 249 256 263 270 277 " y="61">* peripherals : 0x10020000 .. 0x20000000</tspan><tspan x="4 11 18 25 32 39 46 53 60 67 74 81 88 95 102 109 116 123 130 137 144 151 158 165 172 179 186 193 200 207 214 221 228 235 242 249 256 263 270 277 284 291 298 " y="76">* mother_board_map = motherboard_legacy_map</tspan></text></g><g transform="translate(3071.06,172.2)" id="shape28"><path fill-rule="evenodd" stroke="#2e8d5d" fill="#2e8d5d" d="M200.5,29L200.5,0L0,0L0,29L200.5,29z"/><text class="st1"><tspan x="44.3" y="19">TYPE_X86_MACHINE</tspan></text></g><g transform="translate(3803.54,807.7)" id="shape29"><path fill-rule="evenodd" stroke="#6f6f6f" fill="#6f6f6f" d="M179,29L179,0L0,0L0,29L179,29z"/><text class="st1"><tspan x="12.5" y="19">TYPE_I440FX_PCI_DEVICE</tspan></text></g><path transform="translate(4335.02,751.7)" stroke="#6f6f6f" id="shape30" fill="none" d="M0,0L0,22.5L-442,22.5L-442,56"/><g transform="translate(3138.56,798.7)" id="shape31"><path fill-rule="evenodd" stroke="#6f6f6f" fill="#6f6f6f" d="M200.5,29L200.5,0L0,0L0,29L200.5,29z"/><text class="st1"><tspan x="30.3" y="19">TYPE_PCI_HOST_BRIDGE</tspan></text></g><g transform="translate(3243.56,894.7)" id="shape32"><path fill-rule="evenodd" stroke="#6f6f6f" fill="#6f6f6f" d="M200.5,29L200.5,0L0,0L0,29L200.5,29z"/><text class="st1"><tspan x="6.3" y="19">TYPE_I440FX_PCI_HOST_BRIDGE</tspan></text></g><path transform="translate(3142.56,752.7)" stroke="#6f6f6f" id="shape33" fill="none" d="M0,0L0,14L96.3,14L96.3,46"/><path transform="translate(3238.81,827.7)" stroke="#6f6f6f" id="shape34" fill="none" d="M0,0L0,35L105,35L105,67"/><path transform="translate(3837.58,68.7)" stroke="#2e8d5d" id="shape35" fill="none" d="M0,0L0,21L-666.3,21L-666.3,103.5"/><path transform="translate(3837.58,68.7)" stroke="#2e8d5d" id="shape36" fill="none" d="M0,0L0,37"/><path transform="translate(3837.58,134.7)" stroke="#2e8d5d" id="shape37" fill="none" d="M0,0L0,21.5L-103.3,21.5L-103.3,37.5"/><path transform="translate(3837.58,134.7)" stroke="#2e8d5d" id="shape38" fill="none" d="M0,0L0,21.5L135.3,21.5L135.3,37.5"/><path transform="translate(3837.58,134.7)" stroke="#2e8d5d" id="shape39" fill="none" d="M0,0L0,21.5L390,21.5L390,37.5"/><g transform="translate(3253.81,244.45)" id="shape40"><path fill-rule="evenodd" stroke="#2e8d5d" fill="#2e8d5d" d="M200.5,29L200.5,0L0,0L0,29L200.5,29z"/><text class="st1"><tspan x="30.3" y="19">TYPE_MICROVM_MACHINE</tspan></text></g><path transform="translate(3171.31,201.2)" stroke="#2e8d5d" id="shape41" fill="none" d="M0,0L0,27.3L182.8,27.3L182.8,43.3"/><g transform="translate(2908.56,244.45)" id="shape42"><path fill-rule="evenodd" stroke="#2e8d5d" fill="#2e8d5d" d="M200.5,29L200.5,0L0,0L0,29L200.5,29z"/><text class="st1"><tspan x="48.3" y="19">TYPE_PC_MACHINE</tspan></text></g><g transform="translate(3027.81,319.7)" id="shape43"><path fill-rule="evenodd" stroke="#2e8d5d" fill="#2e8d5d" d="M200.5,46L200.5,0L0,0L0,46L200.5,46z"/><text class="st1"><tspan x="6.3" y="20">pc-i440fx-(version)-machine  </tspan><tspan x="76.3" y="35">(group)</tspan></text></g><path transform="translate(3008.81,273.45)" stroke="#2e8d5d" id="shape44" fill="none" d="M0,0L0,14.3L119.3,14.3L119.3,46.3"/><path transform="translate(3171.31,201.2)" stroke="#2e8d5d" id="shape45" fill="none" d="M0,0L0,27.3L-162.5,27.3L-162.5,43.3"/><g transform="translate(3028.56,968.7)" id="shape46"><path fill-rule="evenodd" stroke="#6f6f6f" fill="#6f6f6f" d="M200.5,29L200.5,0L0,0L0,29L200.5,29z"/><text class="st1"><tspan x="30.3" y="19">TYPE_Q35_HOST_DEVICE</tspan></text></g><g transform="translate(3028.56,894.7)" id="shape47"><path fill-rule="evenodd" stroke="#6f6f6f" fill="#6f6f6f" d="M200.5,29L200.5,0L0,0L0,29L200.5,29z"/><text class="st1"><tspan x="27.3" y="19">TYPE_PCIE_HOST_BRIDGE</tspan></text></g><path transform="translate(3238.81,827.7)" stroke="#6f6f6f" id="shape48" fill="none" d="M0,0L0,35L-110,35L-110,67"/><path transform="translate(3128.81,923.7)" stroke="#6f6f6f" id="shape49" fill="none" d="M0,0L0,45"/><g transform="translate(2775.56,319.7)" id="shape50"><path fill-rule="evenodd" stroke="#2e8d5d" fill="#2e8d5d" d="M200.5,46L200.5,0L0,0L0,46L200.5,46z"/><text class="st1"><tspan x="16.3" y="20">pc-q35-(version)-machine  </tspan><tspan x="76.3" y="35">(group)</tspan></text></g><path transform="translate(3008.81,273.45)" stroke="#2e8d5d" id="shape51" fill="none" d="M0,0L0,14.3L-133,14.3L-133,46.3"/><g transform="translate(4061.02,911.7)" id="shape52"><path fill-rule="evenodd" stroke="#6f6f6f" fill="#6f6f6f" d="M161,29L161,0L0,0L0,29L161,29z"/><text class="st1"><tspan x="11" y="19">TYPE_ICH9_LPC_DEVICE</tspan></text></g><path transform="translate(4335.02,751.7)" stroke="#6f6f6f" id="shape53" fill="none" d="M0,0L0,24L-193.5,24L-193.5,160"/><g transform="translate(2006,39.7)" id="shape54"><path fill-rule="evenodd" stroke="#35609f" fill="#35609f" d="M200.5,29L200.5,0L0,0L0,29L200.5,29z"/><text class="st1"><tspan x="51.3" y="19">TYPE_INTERFACE</tspan></text></g><g transform="translate(2006,144.7)" id="shape55"><path fill-rule="evenodd" stroke="#35609f" fill="#35609f" d="M200.5,29L200.5,0L0,0L0,29L200.5,29z"/><text class="st1"><tspan x="30.3" y="19">TYPE_HOTPLUG_HANDLER</tspan></text></g><g transform="translate(1760,144.7)" id="shape56"><path fill-rule="evenodd" stroke="#35609f" fill="#35609f" d="M200.5,29L200.5,0L0,0L0,29L200.5,29z"/><text class="st1"><tspan x="27.3" y="19">INTERFACE_PCIE_DEVICE</tspan></text></g><g transform="translate(2262.5,144.7)" id="shape57"><path fill-rule="evenodd" stroke="#35609f" fill="#35609f" d="M200.5,29L200.5,0L0,0L0,29L200.5,29z"/><text class="st1"><tspan x="37.3" y="19">TYPE_MEMORY_DEVICE</tspan></text></g><path transform="translate(2106.25,68.7)" stroke="#35609f" id="shape58" fill="none" d="M0,0L0,44L-246,44L-246,76"/><path transform="translate(2106.25,68.7)" stroke="#35609f" id="shape59" fill="none" d="M0,0L0,76"/><path transform="translate(2106.25,68.7)" stroke="#35609f" id="shape60" fill="none" d="M0,0L0,44L256.5,44L256.5,76"/><g transform="translate(2775.56,798.7)" id="shape61"><path fill-rule="evenodd" stroke="#6f6f6f" fill="#6f6f6f" d="M200.5,29L200.5,0L0,0L0,29L200.5,29z"/><text class="st1"><tspan x="37.3" y="19">TYPE_IOAPIC_COMMON</tspan></text></g><path transform="translate(3142.56,752.7)" stroke="#6f6f6f" id="shape62" fill="none" d="M0,0L0,14L-266.8,14L-266.8,46"/><g transform="translate(2878.54,894.7)" id="shape63"><path fill-rule="evenodd" stroke="#6f6f6f" fill="#6f6f6f" d="M127,29L127,0L0,0L0,29L127,29z"/><text class="st1"><tspan x="25" y="19">TYPE_IOAPIC</tspan></text></g><g transform="translate(2727.54,894.7)" id="shape64"><path fill-rule="evenodd" stroke="#6f6f6f" fill="#6f6f6f" d="M127,29L127,0L0,0L0,29L127,29z"/><text class="st1"><tspan x="11" y="19">TYPE_KVM_IOAPIC</tspan></text></g><path transform="translate(2875.81,827.7)" stroke="#6f6f6f" id="shape65" fill="none" d="M0,0L0,35L-84.8,35L-84.8,67"/><path transform="translate(2875.81,827.7)" stroke="#6f6f6f" id="shape66" fill="none" d="M0,0L0,35L66.2,35L66.2,67"/><g transform="translate(2425.52,723.7)" id="shape67"><path fill-rule="evenodd" stroke="#6f6f6f" fill="#6f6f6f" d="M173,29L173,0L0,0L0,29L173,29z"/><text class="st1"><tspan x="34" y="19">TYPE_ISA_DEVICE</tspan></text></g><path transform="translate(3565.52,667.2)" stroke="#6f6f6f" id="shape68" fill="none" d="M0,0L0,24.5L-1053.5,24.5L-1053.5,56.5"/><g transform="translate(2425.52,779.7)" id="shape69"><path fill-rule="evenodd" stroke="#6f6f6f" fill="#6f6f6f" d="M173,29L173,0L0,0L0,29L173,29z"/><text class="st1"><tspan x="34" y="19">TYPE_PIC_COMMON</tspan></text></g><g transform="translate(2512.02,835.7)" id="shape70"><path fill-rule="evenodd" stroke="#6f6f6f" fill="#6f6f6f" d="M173,29L173,0L0,0L0,29L173,29z"/><text class="st1"><tspan x="52" y="19">TYPE_I8259</tspan></text></g><path transform="translate(2512.02,752.7)" stroke="#6f6f6f" id="shape71" fill="none" d="M0,0L0,27"/><g transform="translate(2324.02,835.7)" id="shape72"><path fill-rule="evenodd" stroke="#6f6f6f" fill="#6f6f6f" d="M173,29L173,0L0,0L0,29L173,29z"/><text class="st1"><tspan x="38" y="19">TYPE_KVM_I8259</tspan></text></g><path transform="translate(2512.02,808.7)" stroke="#6f6f6f" id="shape73" fill="none" d="M0,0L0,11L-101.5,11L-101.5,27"/><path transform="translate(2512.02,808.7)" stroke="#6f6f6f" id="shape74" fill="none" d="M0,0L0,11L86.5,11L86.5,27"/><g transform="translate(1937.52,723.7)" id="shape75"><path fill-rule="evenodd" stroke="#6f6f6f" fill="#6f6f6f" d="M173,29L173,0L0,0L0,29L173,29z"/><text class="st1"><tspan x="45" y="19">TYPE_PC_DIMM</tspan></text></g><g transform="translate(1937.52,835.7)" id="shape76"><path fill-rule="evenodd" stroke="#6f6f6f" fill="#6f6f6f" d="M173,29L173,0L0,0L0,29L173,29z"/><text class="st1"><tspan x="45" y="19">TYPE_NV_DIMM</tspan></text></g><g transform="translate(3565.52,667.2)" id="shape77"><path stroke="#323232" fill="none" d="M0,0L0,24.5L-1541.5,24.5L-1541.5,52.1"/><path stroke-linecap="round" stroke-width="1" stroke="#323232" fill="#323232" d="M-1541.5,56.5L-1538.5,51.3L-1538.5,51.3C-1539.4,51.8,-1540.4,52.1,-1541.5,52.1C-1542.6,52.1,-1543.6,51.8,-1544.5,51.3L-1541.5,56.5"/></g><g transform="translate(2024.02,752.7)" id="shape78"><path stroke="#323232" fill="none" d="M0,0L0,78.6"/><path stroke-linecap="round" stroke-width="1" stroke="#323232" fill="#323232" d="M0,83L3,77.8L3,77.8C2.1,78.3,1.1,78.6,0,78.6C-1.1,78.6,-2.1,78.3,-3,77.8L0,83"/></g><g transform="translate(1937.52,738.2)" id="shape79"><path stroke-width="3" stroke-dasharray="6,4" stroke="#c00000" fill="none" d="M0,0L-32,0L-32,-198.5L425.2,-198.5L425.2,-556.9"/><path stroke-linecap="round" stroke-width="1" stroke="#c00000" fill="#c00000" d="M425.2,-564.5L420,-555.5L420,-555.5C421.6,-556.4,423.3,-556.9,425.2,-556.9C427.1,-556.9,428.9,-556.4,430.4,-555.5L425.2,-564.5"/><rect x="163" y="-210" width="236.1" height="23" fill="#ffffff"/><text class="st3"><tspan x="162.9" y="-192">pc_dimm_info.interfaces -></tspan></text></g><g transform="translate(2908.56,258.95)" id="shape80"><path stroke-width="3" stroke-dasharray="6,4" stroke="#c00000" fill="none" d="M0,0L-802.3,0L-802.3,-77.6"/><path stroke-linecap="round" stroke-width="1" stroke="#c00000" fill="#c00000" d="M-802.3,-85.3L-807.5,-76.3L-807.5,-76.3C-806,-77.1,-804.2,-77.6,-802.3,-77.6C-800.4,-77.6,-798.6,-77.1,-797.1,-76.3L-802.3,-85.3"/><rect x="-532.5" y="-11.5" width="157.4" height="23" fill="#ffffff"/><text class="st3"><tspan x="-532.6" y="6.5">&lt;----mc.interfaces </tspan></text></g><g transform="translate(1514,144.7)" id="shape81"><path fill-rule="evenodd" stroke="#35609f" fill="#35609f" d="M200.5,29L200.5,0L0,0L0,29L200.5,29z"/><text class="st1"><tspan x="34.3" y="19">TYPE_ACPI_DEVICE_IF</tspan></text></g><g transform="translate(2106.25,68.7)" id="shape82"><path stroke="#323232" fill="none" d="M0,0L0,44L-492,44L-492,71.6"/><path stroke-linecap="round" stroke-width="1" stroke="#323232" fill="#323232" d="M-492,76L-489,70.8L-489,70.8C-489.9,71.3,-490.9,71.6,-492,71.6C-493.1,71.6,-494.1,71.3,-495,70.8L-492,76"/></g><g transform="translate(757.5,39.7)" id="shape83"><path fill-rule="evenodd" stroke="#6e1d1e" fill="#6e1d1e" d="M120,29L120,0L0,0L0,29L120,29z"/><text class="st1"><tspan x="22" y="19">TYPE_OBJECT</tspan></text></g><g transform="translate(738.27,121.2)" id="shape84"><path fill-rule="evenodd" stroke="#6e1d1e" fill="#6e1d1e" d="M158.5,29L158.5,0L0,0L0,29L158.5,29z"/><text class="st1"><tspan x="13.2" y="19">TYPE_MEMORY_BACKEND</tspan></text></g><g transform="translate(598.5,202.7)" id="shape85"><path fill-rule="evenodd" stroke="#6e1d1e" fill="#6e1d1e" d="M181,29L181,0L0,0L0,29L181,29z"/><text class="st1"><tspan x="7" y="19">TYPE_MEMORY_BACKEND_FILE</tspan></text></g><g transform="translate(855.5,202.7)" id="shape86"><path fill-rule="evenodd" stroke="#6e1d1e" fill="#6e1d1e" d="M181,29L181,0L0,0L0,29L181,29z"/><text class="st1"><tspan x="10" y="19">TYPE_MEMORY_BACKEND_RAM</tspan></text></g><path transform="translate(817.5,68.7)" stroke="#6e1d1e" id="shape87" fill="none" d="M0,0L0,52.5"/><path transform="translate(817.5,150.2)" stroke="#6e1d1e" id="shape88" fill="none" d="M0,0L0,20.5L-128.5,20.5L-128.5,52.5"/><path transform="translate(817.5,150.2)" stroke="#6e1d1e" id="shape89" fill="none" d="M0,0L0,20.5L128.5,20.5L128.5,52.5"/><g transform="translate(40,488)" id="shape90"><path fill-rule="evenodd" stroke="#999999" fill="#999999" d="M200.5,29L200.5,0L0,0L0,29L200.5,29z"/><text class="st1"><tspan x="72.3" y="19">TYPE_IRQ</tspan></text></g><g transform="translate(661,685.45)" id="shape91"><path fill-rule="evenodd" stroke="#7c5b0e" fill="#7c5b0e" d="M120,29L120,0L0,0L0,29L120,29z"/><text class="st1"><tspan x="32" y="19">TYPE_BUS</tspan></text></g><g transform="translate(418,797.95)" id="shape92"><path fill-rule="evenodd" stroke="#7c5b0e" fill="#7c5b0e" d="M173,29L173,0L0,0L0,29L173,29z"/><text class="st1"><tspan x="34" y="19">TYPE_SYSTEM_BUS</tspan></text></g><g transform="translate(634.5,797.95)" id="shape93"><path fill-rule="evenodd" stroke="#7c5b0e" fill="#7c5b0e" d="M173,29L173,0L0,0L0,29L173,29z"/><text class="st1"><tspan x="45" y="19">TYPE_PCI_BUS</tspan></text></g><g transform="translate(634.5,873.95)" id="shape94"><path fill-rule="evenodd" stroke="#7c5b0e" fill="#7c5b0e" d="M173,29L173,0L0,0L0,29L173,29z"/><text class="st1"><tspan x="41" y="19">TYPE_PCIE_BUS</tspan></text></g><g transform="translate(940,797.95)" id="shape95"><path fill-rule="evenodd" stroke="#7c5b0e" fill="#7c5b0e" d="M173,29L173,0L0,0L0,29L173,29z"/><text class="st1"><tspan x="34" y="19">TYPE_VIRTIO_BUS</tspan></text></g><g transform="translate(839.5,873.95)" id="shape96"><path fill-rule="evenodd" stroke="#7c5b0e" fill="#7c5b0e" d="M173,29L173,0L0,0L0,29L173,29z"/><text class="st1"><tspan x="17" y="19">TYPE_VIRTIO_MMIO_BUS</tspan></text></g><path transform="translate(1026.5,826.95)" stroke="#7c5b0e" id="shape97" fill="none" d="M0,0L0,15L-100.5,15L-100.5,47"/><path transform="translate(721,826.95)" stroke="#7c5b0e" id="shape98" fill="none" d="M0,0L0,47"/><g transform="translate(1039.5,873.95)" id="shape99"><path fill-rule="evenodd" stroke="#7c5b0e" fill="#7c5b0e" d="M173,29L173,0L0,0L0,29L173,29z"/><text class="st1"><tspan x="20" y="19">TYPE_VIRTIO_PCI_BUS</tspan></text></g><g transform="translate(1222.5,797.95)" id="shape100"><path fill-rule="evenodd" stroke="#7c5b0e" fill="#7c5b0e" d="M173,29L173,0L0,0L0,29L173,29z"/><text class="st1"><tspan x="10" y="19">TYPE_VIRTIO_SERIAL_BUS</tspan></text></g><path transform="translate(1026.5,826.95)" stroke="#7c5b0e" id="shape101" fill="none" d="M0,0L0,15L99.5,15L99.5,47"/><path transform="translate(721,714.45)" stroke="#7c5b0e" id="shape102" fill="none" d="M0,0L0,51.5L-216.5,51.5L-216.5,83.5"/><path transform="translate(721,714.45)" stroke="#7c5b0e" id="shape103" fill="none" d="M0,0L0,83.5"/><path transform="translate(721,714.45)" stroke="#7c5b0e" id="shape104" fill="none" d="M0,0L0,51.5L305.5,51.5L305.5,83.5"/><path transform="translate(721,714.45)" stroke="#7c5b0e" id="shape105" fill="none" d="M0,0L0,51.5L588,51.5L588,83.5"/></g></svg>